<!DOCTYPE svg PUBLIC "-//W3C//DTD SVG 1.1//EN" "http://www.w3.org/Graphics/SVG/1.1/DTD/svg11.dtd">

<!-- Uploaded to: SVG Repo, www.svgrepo.com, Transformed by: SVG Repo Mixer Tools -->
<svg width="72" height="72" viewBox="-2.4 -2.4 28.80 28.80" xmlns="http://www.w3.org/2000/svg" fill="#FFF" transform="rotate(0)matrix(1, 0, 0, 1, 0, 0)" stroke="#FFF" stroke-width="0.00024000000000000003">

<g id="SVGRepo_bgCarrier" stroke-width="0"/>

<g id="SVGRepo_tracerCarrier" stroke-linecap="round" stroke-linejoin="round"/>

<g id="SVGRepo_iconCarrier"> <g> <path fill="none" d="M0 0h24v24H0z"/> <path d="M17 18v-2h.5a3.5 3.5 0 1 0-2.5-5.95V10a6 6 0 1 0-8 5.659v2.089a8 8 0 1 1 9.458-10.65A5.5 5.5 0 1 1 17.5 18l-.5.001zm-8-2h2v4H9v-4zm4 3h2v4h-2v-4z"/> </g> </g>

</svg>
